<svg width="623" height="618" viewBox="0 0 623 618" fill="none" xmlns="http://www.w3.org/2000/svg">
<g id="undraw_year_2022_uci7 1">
<rect width="622.103" height="617.802" fill="url(#paint0_linear_2_2)"/>
<path id="Vector" d="M612 124V458.943C611.998 461.079 611.26 463.127 609.948 464.638C608.635 466.148 606.856 466.998 605 467H49C48.0678 467.001 47.145 466.786 46.2862 466.369C45.4274 465.952 44.65 465.34 44 464.571V124H612Z" fill="url(#paint1_radial_2_2)"/>
<path id="Vector_2" d="M540.69 467.432C540.69 469.402 538.4 470.992 535.57 470.992C532.73 470.992 530.44 469.402 530.44 467.432C530.44 465.462 532.73 463.862 535.57 463.862C538.4 463.862 540.69 465.462 540.69 467.432Z" fill="url(#paint2_radial_2_2)"/>
<path id="Vector_3" d="M403.851 371.07C403.842 371.176 403.827 371.276 403.813 371.382C393.956 375.709 380.472 378.376 365.588 378.376C349.332 378.376 334.731 375.195 324.72 370.144C318.676 367.098 314.306 363.371 312.253 359.256C311.395 357.594 310.941 355.754 310.929 353.883C310.928 353.409 310.959 352.934 311.02 352.464C311.134 351.582 311.348 350.716 311.658 349.883C312.573 347.563 313.988 345.473 315.803 343.762C316.21 343.364 316.642 342.966 317.093 342.578C321.245 339.234 325.952 336.644 330.999 334.927C323.41 338.716 318.422 343.58 317.294 348.938C317.27 349.034 317.256 349.13 317.242 349.221C317.113 349.893 317.049 350.576 317.05 351.26C317.05 351.327 317.05 351.399 317.055 351.466C317.055 351.466 317.059 351.471 317.055 351.471C317.131 355.749 319.659 359.764 324.039 363.251C333.407 370.71 351.246 375.752 371.713 375.752C382.603 375.859 393.445 374.28 403.851 371.07V371.07Z" fill="#E82D2D"/>
<path id="Vector_4" d="M297.851 309.07C297.842 309.176 297.827 309.276 297.813 309.382C287.956 313.709 274.472 316.376 259.588 316.376C243.332 316.376 228.731 313.195 218.72 308.144C212.676 305.098 208.306 301.371 206.253 297.256C205.395 295.594 204.941 293.754 204.929 291.883C204.928 291.409 204.959 290.934 205.02 290.464C205.134 289.582 205.348 288.716 205.658 287.883C206.573 285.563 207.988 283.473 209.803 281.762C210.21 281.364 210.642 280.966 211.093 280.578C215.245 277.234 219.952 274.644 224.999 272.927C217.41 276.716 212.422 281.58 211.294 286.938C211.27 287.034 211.256 287.13 211.242 287.221C211.113 287.893 211.049 288.576 211.05 289.26C211.05 289.327 211.05 289.399 211.055 289.466C211.055 289.466 211.059 289.471 211.055 289.471C211.131 293.749 213.659 297.764 218.039 301.251C227.407 308.71 245.246 313.752 265.713 313.752C276.603 313.859 287.444 312.28 297.851 309.07V309.07Z" fill="#E82D2D"/>
<path id="Vector_5" d="M292.278 325.015C292.267 325.144 292.249 325.267 292.231 325.396C280.207 330.674 263.76 333.927 245.603 333.927C225.774 333.927 207.963 330.047 195.751 323.886C188.379 320.171 183.048 315.624 180.544 310.604C179.497 308.577 178.944 306.332 178.929 304.051C178.928 303.471 178.965 302.893 179.04 302.319C179.179 301.243 179.44 300.187 179.819 299.171C180.934 296.34 182.66 293.791 184.874 291.705C185.371 291.219 185.898 290.733 186.448 290.259C190.649 286.655 196.442 283.484 203.411 280.927C194.154 285.549 188.069 291.482 186.694 298.018C186.664 298.135 186.647 298.252 186.629 298.363C186.472 299.183 186.394 300.015 186.395 300.85C186.395 300.932 186.395 301.02 186.401 301.102C186.401 301.102 186.407 301.107 186.401 301.107C186.495 306.327 189.578 311.224 194.92 315.478C206.348 324.576 228.108 330.726 253.075 330.726C267.727 330.726 281.272 328.602 292.278 325.015Z" fill="#E82D2D"/>
<path id="Vector_6" d="M414.422 389.764C414.408 389.919 414.387 390.066 414.366 390.221C399.932 396.556 380.188 400.461 358.394 400.461C334.59 400.461 313.21 395.805 298.552 388.409C289.702 383.949 283.303 378.491 280.297 372.465C279.04 370.032 278.376 367.337 278.359 364.599C278.357 363.903 278.402 363.209 278.492 362.52C278.659 361.228 278.972 359.961 279.426 358.741C280.765 355.343 282.837 352.283 285.495 349.779C286.092 349.196 286.724 348.613 287.384 348.044C292.427 343.717 299.381 339.91 307.746 336.841C296.634 342.39 289.33 349.512 287.679 357.357C287.644 357.498 287.623 357.638 287.602 357.771C287.414 358.755 287.319 359.755 287.321 360.757C287.321 360.855 287.321 360.96 287.328 361.059C287.328 361.059 287.335 361.066 287.328 361.066C287.44 367.331 291.142 373.21 297.554 378.316C311.272 389.238 337.393 396.62 367.363 396.62C384.95 396.62 401.21 394.07 414.422 389.764Z" fill="#E82D2D"/>
<path id="Vector_7" d="M172.851 365.07C172.842 365.176 172.827 365.276 172.813 365.382C162.956 369.709 149.472 372.376 134.588 372.376C118.332 372.376 103.731 369.195 93.7197 364.144C87.6758 361.098 83.306 357.371 81.253 353.256C80.3946 351.594 79.941 349.754 79.9291 347.883C79.9281 347.409 79.9585 346.934 80.0202 346.464C80.1339 345.582 80.348 344.716 80.6582 343.883C81.5727 341.563 82.9878 339.473 84.8026 337.762C85.2103 337.364 85.642 336.966 86.0929 336.578C90.2451 333.234 94.9517 330.644 99.9987 328.927C92.4102 332.716 87.4216 337.58 86.2944 342.938C86.2704 343.034 86.256 343.13 86.2416 343.221C86.1129 343.893 86.0487 344.576 86.0497 345.26C86.0497 345.327 86.0497 345.399 86.0545 345.466C86.0545 345.466 86.0593 345.471 86.0545 345.471C86.1313 349.749 88.6592 353.764 93.0386 357.251C102.407 364.71 120.246 369.752 140.713 369.752C151.603 369.859 162.444 368.28 172.851 365.07V365.07Z" fill="#E82D2D"/>
<path id="Vector_8" d="M183.422 383.764C183.408 383.919 183.387 384.066 183.366 384.221C168.932 390.556 149.188 394.461 127.394 394.461C103.591 394.461 82.2104 389.805 67.5519 382.409C58.7021 377.949 52.3035 372.491 49.2973 366.465C48.0404 364.032 47.3762 361.337 47.3588 358.599C47.3574 357.903 47.4019 357.209 47.4922 356.52C47.6587 355.228 47.9721 353.961 48.4264 352.741C49.7654 349.343 51.8375 346.283 54.4949 343.779C55.0919 343.196 55.724 342.613 56.3843 342.044C61.4273 337.717 68.3807 333.91 76.7459 330.841C65.6345 336.39 58.3298 343.512 56.6792 351.357C56.6441 351.498 56.623 351.638 56.602 351.771C56.4135 352.755 56.3195 353.755 56.321 354.757C56.321 354.855 56.321 354.96 56.328 355.059C56.328 355.059 56.335 355.066 56.328 355.066C56.4404 361.331 60.1418 367.21 66.5545 372.316C80.2718 383.238 106.393 390.62 136.363 390.62C153.95 390.62 170.21 388.07 183.422 383.764Z" fill="#E82D2D"/>
<path id="Vector_9" d="M507.43 284.885C506.131 285.529 504.8 286.103 503.44 286.605C502.79 286.855 502.13 287.085 501.44 287.305C494.095 289.585 486.44 290.705 478.75 290.625C457.48 290.625 440.24 282.905 440.24 273.375C440.24 267.985 445.75 263.185 454.38 260.015C448.27 263.075 444.55 267.105 444.55 271.525C444.55 281.055 461.8 288.775 483.06 288.775C489.252 288.852 495.428 288.14 501.44 286.655C502.11 286.485 502.78 286.305 503.44 286.125C504.78 285.745 506.11 285.335 507.43 284.885Z" fill="#E82D2D"/>
<path id="Vector_10" d="M511.04 301.145C508.647 303.031 506.106 304.72 503.44 306.195C502.79 306.555 502.12 306.915 501.44 307.275C493.906 311.091 485.9 313.892 477.63 315.605C451.74 321.155 428.75 316.245 426.26 304.655C424.86 298.095 430.31 290.805 439.99 284.705C433.35 290.015 429.88 295.895 431.03 301.275C433.51 312.875 456.51 317.785 482.4 312.235C488.955 310.92 495.341 308.874 501.44 306.135C502.11 305.845 502.78 305.545 503.44 305.225C506.03 303.985 508.57 302.625 511.04 301.145Z" fill="#E82D2D"/>
<path id="Vector_11" d="M235.011 379.062C237.843 379.062 240.139 377.465 240.139 375.494C240.139 373.524 237.843 371.927 235.011 371.927C232.178 371.927 229.882 373.524 229.882 375.494C229.882 377.465 232.178 379.062 235.011 379.062Z" fill="#C93838" fill-opacity="0.46"/>
<path id="Vector_12" d="M267.565 387.089C270.398 387.089 272.694 385.492 272.694 383.522C272.694 381.551 270.398 379.954 267.565 379.954C264.733 379.954 262.437 381.551 262.437 383.522C262.437 385.492 264.733 387.089 267.565 387.089Z" fill="#46D955"/>
<path id="Vector_13" d="M222.078 404.482C224.91 404.482 227.206 402.884 227.206 400.914C227.206 398.944 224.91 397.346 222.078 397.346C219.245 397.346 216.949 398.944 216.949 400.914C216.949 402.884 219.245 404.482 222.078 404.482Z" fill="#FF6584"/>
<path id="Vector_14" d="M349.011 268.062C351.843 268.062 354.139 266.465 354.139 264.494C354.139 262.524 351.843 260.927 349.011 260.927C346.178 260.927 343.882 262.524 343.882 264.494C343.882 266.465 346.178 268.062 349.011 268.062Z" fill="#C93838" fill-opacity="0.46"/>
<path id="Vector_15" d="M381.565 276.089C384.398 276.089 386.694 274.492 386.694 272.522C386.694 270.551 384.398 268.954 381.565 268.954C378.733 268.954 376.437 270.551 376.437 272.522C376.437 274.492 378.733 276.089 381.565 276.089Z" fill="#46D955"/>
<path id="Vector_16" d="M336.078 293.482C338.91 293.482 341.206 291.884 341.206 289.914C341.206 287.944 338.91 286.346 336.078 286.346C333.245 286.346 330.949 287.944 330.949 289.914C330.949 291.884 333.245 293.482 336.078 293.482Z" fill="#FF6584"/>
<path id="Vector_17" d="M506.14 326.495C506.14 327.855 505.05 329.035 503.44 329.635C502.8 329.879 502.124 330.017 501.44 330.045C501.297 330.062 501.154 330.068 501.01 330.065C498.18 330.065 495.88 328.465 495.88 326.495C495.88 324.525 498.18 322.925 501.01 322.925C501.154 322.921 501.297 322.928 501.44 322.945C502.124 322.973 502.8 323.111 503.44 323.355C505.05 323.955 506.14 325.135 506.14 326.495Z" fill="#C93838" fill-opacity="0.46"/>
<path id="Vector_18" d="M540.69 467.432C540.69 469.402 538.4 470.992 535.57 470.992C532.73 470.992 530.44 469.402 530.44 467.432C530.44 465.462 532.73 463.862 535.57 463.862C538.4 463.862 540.69 465.462 540.69 467.432Z" fill="#46D955"/>
<path id="Vector_19" d="M488.078 355.482C490.91 355.482 493.206 353.884 493.206 351.914C493.206 349.944 490.91 348.346 488.078 348.346C485.245 348.346 482.949 349.944 482.949 351.914C482.949 353.884 485.245 355.482 488.078 355.482Z" fill="#FF6584"/>
<path id="Vector_20" d="M98.0105 273.062C100.843 273.062 103.139 271.465 103.139 269.494C103.139 267.524 100.843 265.927 98.0105 265.927C95.1781 265.927 92.882 267.524 92.882 269.494C92.882 271.465 95.1781 273.062 98.0105 273.062Z" fill="#C93838" fill-opacity="0.46"/>
<path id="Vector_21" d="M130.565 281.089C133.398 281.089 135.694 279.492 135.694 277.522C135.694 275.551 133.398 273.954 130.565 273.954C127.733 273.954 125.437 275.551 125.437 277.522C125.437 279.492 127.733 281.089 130.565 281.089Z" fill="#46D955"/>
<path id="Vector_22" d="M85.0778 298.482C87.9102 298.482 90.2063 296.884 90.2063 294.914C90.2063 292.944 87.9102 291.346 85.0778 291.346C82.2454 291.346 79.9493 292.944 79.9493 294.914C79.9493 296.884 82.2454 298.482 85.0778 298.482Z" fill="#FF6584"/>
<path id="left-2" d="M198.328 346.076C186.835 345.368 175.336 344.798 163.833 344.286C156.082 343.941 148.323 343.658 140.581 343.134C137.864 342.951 135.146 342.733 132.444 342.39C131.736 342.286 131.025 342.169 130.32 342.025C130.423 341.897 130.525 341.767 130.63 341.64C131.186 340.967 131.758 340.308 132.337 339.656C135.404 336.205 138.651 332.916 141.852 329.591C146.364 324.904 150.841 320.183 155.21 315.361C160.89 309.092 166.388 302.664 171.704 296.077C173.209 294.21 174.698 292.33 176.172 290.438C177.203 289.114 178.228 287.786 179.249 286.454C179.634 285.952 180.018 285.449 180.4 284.945C180.578 284.71 180.756 284.475 180.934 284.24C181.109 284.009 181.872 283.009 181.318 283.723C181.645 283.3 181.973 282.876 182.3 282.452C182.521 282.164 182.741 281.875 182.96 281.586C183.463 280.919 183.957 280.247 184.443 279.568C185.319 278.342 186.166 277.097 186.983 275.83C188.53 273.435 189.953 270.962 191.247 268.42C196.071 258.915 199.229 248.408 199.164 237.677C199.204 228.669 196.717 219.831 191.984 212.167C187.399 204.91 180.762 199.178 172.916 195.698C168.35 193.726 163.523 192.424 158.584 191.834C153.777 191.308 148.921 191.419 144.143 192.166C133.175 193.686 122.658 198.371 113.458 204.421C110.526 206.349 107.723 208.456 104.968 210.629C104.391 211.206 103.933 211.891 103.621 212.645C103.308 213.399 103.148 214.207 103.148 215.024C103.16 216.669 103.813 218.246 104.968 219.418C106.136 220.58 107.715 221.234 109.363 221.238C110.991 221.144 112.539 220.502 113.757 219.418C113.885 219.317 114.014 219.217 114.142 219.115C114.53 218.82 114.92 218.528 115.312 218.238C116.139 217.627 116.975 217.029 117.82 216.444C119.495 215.284 121.205 214.179 122.952 213.129C125.962 211.323 129.086 209.712 132.303 208.307C136.955 206.388 141.818 205.029 146.79 204.256C150.475 203.821 154.196 203.799 157.885 204.19C161.139 204.676 164.325 205.54 167.379 206.763C168.774 207.395 170.131 208.11 171.442 208.902C172.248 209.392 173.035 209.912 173.802 210.461C173.91 210.538 174.149 210.717 174.354 210.87C174.548 211.028 174.741 211.188 174.932 211.35C176.331 212.535 177.64 213.822 178.848 215.201C179.132 215.526 179.411 215.855 179.684 216.189C179.725 216.24 179.765 216.291 179.805 216.342C180.332 217.054 180.834 217.784 181.31 218.532C182.28 220.068 183.141 221.67 183.887 223.327C185.101 226.375 185.959 229.552 186.444 232.797C186.833 236.475 186.812 240.184 186.381 243.857C185.619 248.774 184.274 253.582 182.376 258.181C180.166 263.184 177.467 267.957 174.321 272.43C173.881 273.06 173.434 273.684 172.98 274.303C172.767 274.593 172.552 274.881 172.337 275.168C172.253 275.28 171.973 275.646 171.821 275.846C171.485 276.275 171.154 276.704 170.826 277.138C170.648 277.375 170.469 277.612 170.291 277.849C169.877 278.396 169.463 278.942 169.047 279.487C168.694 279.949 168.341 280.41 167.987 280.87L167.974 280.887C167.835 281.066 167.696 281.246 167.557 281.425C166.81 282.385 166.059 283.343 165.304 284.297C159.893 291.135 154.278 297.805 148.46 304.307C143.935 309.368 139.29 314.318 134.589 319.214C131.211 322.733 127.781 326.208 124.496 329.815C122.012 332.304 119.844 335.09 118.041 338.109C116.291 341.395 115.597 345.35 117.759 348.652C119.82 351.799 123.419 353.246 126.968 353.985C131.591 354.843 136.267 355.379 140.964 355.589C147.715 356.037 154.478 356.301 161.237 356.6C170.817 357.024 180.396 357.471 189.971 358.012C192.757 358.169 195.542 358.334 198.328 358.506C199.973 358.496 201.548 357.839 202.712 356.675C203.875 355.512 204.533 353.936 204.542 352.291C204.506 350.654 203.839 349.095 202.682 347.937C201.524 346.78 199.965 346.113 198.328 346.076V346.076Z" fill="#6C63FF"/>
<path id="null" d="M311.58 223.685C311.409 215.861 310.771 208.053 309.67 200.305C308.701 193.186 307.299 186.133 305.47 179.185C303.649 172.308 301.302 165.582 298.45 159.065C296.257 153.859 293.454 148.931 290.1 144.385C286.77 140.005 282.95 135.885 278.04 133.245C275.929 132.075 273.654 131.232 271.29 130.745C270.97 130.685 270.65 130.635 270.32 130.605C270.1 130.575 269.87 130.545 269.64 130.515C262.668 129.827 255.631 130.803 249.11 133.365C242.624 135.997 236.821 140.07 232.14 145.275C227.544 150.489 223.829 156.416 221.14 162.825C218.152 169.82 215.988 177.14 214.69 184.635C213.301 192.632 212.649 200.739 212.74 208.855C212.86 217 213.68 225.12 215.19 233.125C215.2 233.165 215.2 233.195 215.21 233.235C216.549 240.506 218.612 247.625 221.37 254.485C223.99 261.262 227.505 267.659 231.82 273.505C236.026 279.25 241.324 284.11 247.41 287.805C250.385 289.537 253.558 290.904 256.86 291.875C259.752 292.822 262.705 293.567 265.7 294.105C268.834 294.636 272.025 294.754 275.19 294.455C278.576 294.072 281.886 293.185 285.01 291.825C290.38 289.495 294.65 285.425 298.15 280.825C301.66 275.988 304.371 270.62 306.18 264.925C308.292 258.391 309.74 251.66 310.5 244.835C310.98 240.945 311.303 237.042 311.47 233.125C311.61 229.985 311.647 226.838 311.58 223.685ZM298.86 236.585C298.67 239.415 298.4 242.245 298.03 245.075C297.269 250.674 295.99 256.191 294.21 261.555C293.81 262.735 293.37 263.895 292.9 265.045C291.579 268.152 289.919 271.103 287.95 273.845L287.93 273.875C287.73 274.125 287.53 274.365 287.33 274.605C286.81 275.215 286.27 275.805 285.71 276.375C285.14 276.945 284.55 277.495 283.94 278.015C283.79 278.145 283.63 278.275 283.47 278.405C283.39 278.465 283.31 278.515 283.24 278.575C280.752 280.444 277.825 281.643 274.74 282.055C272.607 282.263 270.459 282.247 268.33 282.005C266.438 281.695 264.57 281.254 262.74 280.685C260.85 280.105 258.95 279.545 257.12 278.825C255.111 277.923 253.184 276.849 251.36 275.615C250.87 275.285 250.39 274.935 249.91 274.585L249.43 274.195C248.43 273.365 247.47 272.495 246.54 271.585C245.61 270.675 244.72 269.735 243.86 268.745C243.41 268.235 242.96 267.705 242.53 267.175C242.4 267.005 242.26 266.835 242.13 266.675C240.47 264.456 238.95 262.134 237.58 259.725C236.078 257.073 234.72 254.342 233.51 251.545C231.087 245.583 229.193 239.419 227.85 233.125C227.62 232.095 227.41 231.065 227.22 230.025C226.84 228.055 226.53 226.075 226.25 224.095C225.132 215.438 224.878 206.692 225.49 197.985C225.65 195.705 225.89 193.425 226.18 191.155C227.038 184.907 228.491 178.756 230.52 172.785C231.02 171.305 231.58 169.845 232.18 168.405C234.02 164.106 236.342 160.03 239.1 156.255C239.13 156.215 239.18 156.145 239.24 156.075L239.27 156.025C239.66 155.535 240.06 155.065 240.47 154.595C241.21 153.735 241.97 152.915 242.77 152.115C243.6 151.295 244.45 150.515 245.34 149.765C245.54 149.595 245.93 149.295 246.21 149.085C246.45 148.905 246.69 148.715 246.94 148.545C251.038 145.564 255.823 143.665 260.85 143.025C263.474 142.742 266.118 142.698 268.75 142.895C269.421 143.049 270.082 143.242 270.73 143.475C272.046 144.101 273.301 144.847 274.48 145.705C274.525 145.744 274.571 145.781 274.62 145.815C274.97 146.115 275.33 146.425 275.67 146.735C276.4 147.405 277.1 148.115 277.77 148.835C278.43 149.555 279.06 150.305 279.67 151.065C279.75 151.175 279.83 151.275 279.9 151.375C280.23 151.815 280.54 152.265 280.85 152.715C282.19 154.678 283.425 156.711 284.55 158.805C285.76 161.045 286.85 163.355 287.87 165.705C291.695 175.16 294.518 184.991 296.29 195.035C296.81 197.825 297.26 200.635 297.65 203.445C298.964 213.28 299.426 223.21 299.03 233.125C298.99 234.275 298.93 235.435 298.86 236.585V236.585Z" fill="#6C63FF"/>
<path id="mid-2" d="M423.449 345.076C411.957 344.368 400.457 343.798 388.954 343.286C381.203 342.941 373.445 342.658 365.703 342.134C362.986 341.951 360.268 341.733 357.566 341.39C356.857 341.286 356.146 341.169 355.441 341.025C355.544 340.897 355.647 340.767 355.752 340.64C356.307 339.967 356.879 339.308 357.459 338.656C360.525 335.205 363.772 331.916 366.973 328.591C371.485 323.904 375.962 319.183 380.331 314.361C386.012 308.092 391.51 301.664 396.826 295.077C398.33 293.21 399.819 291.33 401.293 289.438C402.324 288.114 403.35 286.786 404.37 285.454C404.755 284.952 405.139 284.449 405.522 283.945C405.7 283.71 405.878 283.475 406.055 283.24C406.23 283.009 406.993 282.009 406.439 282.723C406.767 282.3 407.094 281.876 407.421 281.452C407.642 281.164 407.862 280.875 408.082 280.586C408.584 279.919 409.079 279.247 409.564 278.568C410.441 277.342 411.287 276.097 412.104 274.83C413.651 272.435 415.074 269.962 416.368 267.42C421.192 257.915 424.351 247.408 424.285 236.677C424.326 227.669 421.838 218.831 417.106 211.167C412.52 203.91 405.884 198.178 398.037 194.698C393.471 192.726 388.644 191.424 383.706 190.834C378.898 190.308 374.043 190.419 369.264 191.166C358.297 192.686 347.779 197.371 338.58 203.421C335.647 205.349 332.844 207.456 330.089 209.629C329.512 210.206 329.054 210.891 328.742 211.645C328.429 212.399 328.269 213.207 328.269 214.024C328.281 215.669 328.934 217.246 330.089 218.418C331.257 219.58 332.836 220.234 334.484 220.238C336.112 220.144 337.66 219.502 338.878 218.418C339.006 218.317 339.135 218.217 339.264 218.115C339.651 217.82 340.041 217.528 340.433 217.238C341.261 216.627 342.097 216.029 342.942 215.444C344.616 214.284 346.326 213.179 348.073 212.129C351.084 210.323 354.207 208.712 357.424 207.307C362.076 205.388 366.939 204.029 371.912 203.256C375.596 202.821 379.317 202.799 383.006 203.19C386.26 203.676 389.446 204.54 392.5 205.763C393.896 206.395 395.252 207.11 396.563 207.902C397.369 208.392 398.156 208.912 398.923 209.461C399.031 209.538 399.27 209.717 399.475 209.87C399.669 210.028 399.862 210.188 400.053 210.35C401.452 211.535 402.761 212.822 403.969 214.201C404.253 214.526 404.532 214.855 404.805 215.189C404.846 215.24 404.886 215.291 404.927 215.342C405.453 216.054 405.955 216.784 406.432 217.532C407.402 219.068 408.263 220.67 409.008 222.327C410.222 225.375 411.08 228.552 411.565 231.797C411.955 235.475 411.934 239.184 411.502 242.857C410.74 247.774 409.396 252.582 407.497 257.181C405.287 262.184 402.589 266.957 399.442 271.43C399.003 272.06 398.555 272.684 398.101 273.303C397.888 273.593 397.674 273.881 397.458 274.168C397.374 274.28 397.094 274.646 396.942 274.846C396.606 275.275 396.276 275.704 395.948 276.138C395.769 276.375 395.59 276.612 395.412 276.849C394.999 277.396 394.584 277.942 394.168 278.487C393.816 278.949 393.463 279.41 393.109 279.87L393.096 279.887C392.957 280.066 392.818 280.246 392.678 280.425C391.931 281.385 391.181 282.343 390.426 283.297C385.014 290.135 379.399 296.805 373.581 303.307C369.056 308.368 364.411 313.318 359.71 318.214C356.332 321.733 352.902 325.208 349.617 328.815C347.133 331.304 344.966 334.09 343.162 337.109C341.413 340.395 340.718 344.35 342.88 347.652C344.941 350.799 348.54 352.246 352.089 352.985C356.712 353.843 361.388 354.379 366.085 354.589C372.836 355.037 379.599 355.301 386.358 355.6C395.938 356.024 405.518 356.471 415.092 357.012C417.878 357.169 420.664 357.334 423.449 357.506C425.094 357.496 426.67 356.839 427.833 355.675C428.996 354.512 429.654 352.936 429.664 351.291C429.627 349.654 428.961 348.095 427.803 346.937C426.645 345.78 425.086 345.113 423.449 345.076V345.076Z" fill="#6C63FF"/>
<path id="right-2" d="M562.04 267.785C562.032 269.429 561.375 271.004 560.212 272.167C559.049 273.33 557.474 273.986 555.83 273.995C553.04 273.825 550.26 273.665 547.47 273.505C537.9 272.965 528.32 272.515 518.74 272.095C513.64 271.865 508.53 271.655 503.44 271.375C502.77 271.345 502.1 271.305 501.44 271.265C500.44 271.215 499.45 271.145 498.46 271.085C493.765 270.874 489.09 270.336 484.47 269.475C480.92 268.735 477.32 267.295 475.26 264.145C473.1 260.845 473.79 256.885 475.54 253.595C477.344 250.576 479.513 247.792 482 245.305C485.28 241.695 488.71 238.225 492.09 234.705C492.59 234.185 493.1 233.655 493.59 233.125C496.24 230.365 498.856 227.578 501.44 224.765C502.11 224.035 502.78 223.315 503.44 222.585C504.28 221.655 505.12 220.725 505.96 219.795C511.78 213.295 517.393 206.625 522.8 199.785C523.56 198.835 524.31 197.875 525.06 196.915C525.2 196.735 525.34 196.555 525.47 196.375L525.49 196.365C525.84 195.905 526.19 195.435 526.55 194.975C526.96 194.435 527.38 193.885 527.79 193.335C527.97 193.105 528.15 192.865 528.33 192.625C528.65 192.195 528.98 191.765 529.32 191.335C529.47 191.135 529.75 190.775 529.84 190.655C530.05 190.375 530.27 190.085 530.48 189.795C530.93 189.175 531.38 188.555 531.82 187.925C534.968 183.451 537.667 178.678 539.88 173.675C541.774 169.073 543.117 164.263 543.88 159.345C544.31 155.672 544.33 151.962 543.94 148.285C543.457 145.041 542.601 141.863 541.39 138.815C540.641 137.161 539.779 135.56 538.81 134.025C538.33 133.275 537.83 132.545 537.3 131.835L537.18 131.685C536.91 131.345 536.63 131.015 536.35 130.695C535.142 129.315 533.831 128.028 532.43 126.845C532.24 126.675 532.05 126.515 531.85 126.365C531.65 126.205 531.41 126.025 531.3 125.955C530.53 125.405 529.75 124.885 528.94 124.395C528.53 124.145 528.11 123.905 527.69 123.675C526.77 123.165 525.83 122.685 524.88 122.255C521.824 121.031 518.636 120.169 515.38 119.685C511.692 119.295 507.973 119.315 504.29 119.745C504.01 119.785 503.72 119.835 503.44 119.895C502.77 119.995 502.1 120.115 501.44 120.265C497.454 121.06 493.556 122.242 489.8 123.795C486.584 125.205 483.461 126.818 480.45 128.625C478.7 129.675 476.99 130.778 475.32 131.935C474.47 132.525 473.64 133.115 472.81 133.725C472.42 134.015 472.03 134.315 471.64 134.605C471.51 134.705 471.38 134.805 471.26 134.905C470.042 135.993 468.491 136.635 466.86 136.725C466.044 136.726 465.237 136.565 464.483 136.253C463.73 135.941 463.046 135.482 462.47 134.905C461.311 133.737 460.658 132.16 460.65 130.515C460.647 129.699 460.807 128.891 461.119 128.137C461.432 127.384 461.891 126.699 462.47 126.125C465.22 123.945 468.03 121.845 470.96 119.915C480.1 113.905 490.55 109.235 501.44 107.685C501.51 107.675 501.57 107.665 501.64 107.655C502.24 107.565 502.84 107.475 503.44 107.405C507.636 106.893 511.878 106.866 516.08 107.325C520.841 107.894 525.5 109.126 529.92 110.985C530.09 111.045 530.25 111.115 530.42 111.185C538.263 114.668 544.896 120.4 549.48 127.655C554.214 135.318 556.702 144.157 556.66 153.165C556.73 163.895 553.57 174.405 548.75 183.915C547.452 186.455 546.027 188.928 544.48 191.325C543.67 192.585 542.82 193.835 541.94 195.055C541.46 195.735 540.96 196.415 540.46 197.075L539.8 197.945C539.53 198.285 539.27 198.625 539.02 198.965L539.01 198.975C538.994 198.989 538.98 199.006 538.97 199.025L539 198.995C538.97 199.035 538.9 199.115 538.82 199.215C538.69 199.395 538.5 199.635 538.43 199.735C538.26 199.965 538.08 200.205 537.9 200.435C537.52 200.935 537.13 201.445 536.75 201.945C535.73 203.275 534.703 204.602 533.67 205.925C532.2 207.825 530.71 209.705 529.2 211.565C523.89 218.155 518.393 224.585 512.71 230.855C512.02 231.615 511.33 232.375 510.63 233.125C508.26 235.715 505.863 238.278 503.44 240.815C502.77 241.515 502.11 242.205 501.44 242.905C500.75 243.635 500.05 244.355 499.35 245.085C496.15 248.405 492.9 251.695 489.84 255.145C489.26 255.795 488.69 256.455 488.13 257.135C488.02 257.255 487.92 257.385 487.82 257.515C488.52 257.665 489.24 257.775 489.94 257.885C492.65 258.225 495.36 258.445 498.08 258.625C499.2 258.705 500.32 258.775 501.44 258.835C502.11 258.875 502.77 258.915 503.44 258.945C509.4 259.285 515.37 259.515 521.33 259.775C532.84 260.285 544.34 260.855 555.83 261.565C557.467 261.603 559.026 262.27 560.183 263.429C561.34 264.588 562.005 266.148 562.04 267.785V267.785Z" fill="#6C63FF"/>
</g>
<defs>
<linearGradient id="paint0_linear_2_2" x1="560" y1="42" x2="47" y2="602" gradientUnits="userSpaceOnUse">
<stop stop-color="#46DDD4"/>
<stop offset="0.510417" stop-color="#CB86CD" stop-opacity="0.489583"/>
<stop offset="1" stop-color="#C333C6" stop-opacity="0"/>
</linearGradient>
<radialGradient id="paint1_radial_2_2" cx="0" cy="0" r="1" gradientUnits="userSpaceOnUse" gradientTransform="translate(306 318.52) rotate(90) scale(171.5 284)">
<stop stop-color="#3BDBBE"/>
<stop offset="0.572917" stop-color="#D9DB6C" stop-opacity="0.427083"/>
<stop offset="1" stop-color="#EE2EA1" stop-opacity="0"/>
</radialGradient>
<radialGradient id="paint2_radial_2_2" cx="0" cy="0" r="1" gradientUnits="userSpaceOnUse" gradientTransform="translate(535.565 467.427) rotate(90) scale(3.565 5.125)">
<stop stop-color="#3BDBBE"/>
<stop offset="0.572917" stop-color="#D9DB6C" stop-opacity="0.427083"/>
<stop offset="1" stop-color="#EE2EA1" stop-opacity="0"/>
</radialGradient>
</defs>
</svg>
